<svg width="640" height="320" viewBox="0 0 640 320" xmlns="http://www.w3.org/2000/svg" role="img">
<title>TradeOS — Equipment Nameplate (primary logo, dark)</title>
<defs>
  <linearGradient id="plate" x1="0" y1="0" x2="0.3" y2="1">
    <stop offset="0" stop-color="#5a5d5f"></stop>
    <stop offset="0.4" stop-color="#2c2e30"></stop>
    <stop offset="0.75" stop-color="#161717"></stop>
    <stop offset="1" stop-color="#0a0a0a"></stop>
  </linearGradient>
  <linearGradient id="steelText" x1="0" y1="0" x2="0" y2="1">
    <stop offset="0" stop-color="#fcfaf5"></stop>
    <stop offset="0.4" stop-color="#d8cfba"></stop>
    <stop offset="0.75" stop-color="#a49685"></stop>
    <stop offset="1" stop-color="#756a5a"></stop>
  </linearGradient>
  <linearGradient id="copperText" x1="0" y1="0" x2="0" y2="1">
    <stop offset="0" stop-color="#E8C99A"></stop>
    <stop offset="0.55" stop-color="#B87333"></stop>
    <stop offset="1" stop-color="#8A5620"></stop>
  </linearGradient>
  <radialGradient id="rivet" cx="0.35" cy="0.3" r="0.75">
    <stop offset="0" stop-color="#f2f2f2"></stop>
    <stop offset="0.42" stop-color="#9c9c9c"></stop>
    <stop offset="0.78" stop-color="#4a4a4a"></stop>
    <stop offset="1" stop-color="#222"></stop>
  </radialGradient>
  <filter id="softshadow" x="-20%" y="-20%" width="140%" height="140%">
    <feDropShadow dx="0" dy="10" stdDeviation="14" flood-color="#000" flood-opacity="0.5"></feDropShadow>
  </filter>
</defs>

<polygon points="16,0 624,0 640,16 640,304 624,320 16,320 0,304 0,16" fill="url(#plate)" filter="url(#softshadow)"></polygon>
<polygon points="16,0 624,0 640,16 640,304 624,320 16,320 0,304 0,16" fill="none" stroke="rgba(255,255,255,0.06)" stroke-width="1"></polygon>

<rect x="24" y="24" width="592" height="272" fill="none" stroke="rgba(255,255,255,0.15)" stroke-width="1"></rect>


<g stroke="rgba(255,255,255,0.35)" stroke-width="1">
  <g id="ticksTop">
    <line x1="48" y1="36" x2="48" y2="42"></line><line x1="78" y1="36" x2="78" y2="42"></line><line x1="108" y1="36" x2="108" y2="42"></line>
    <line x1="138" y1="36" x2="138" y2="42"></line><line x1="168" y1="36" x2="168" y2="42"></line><line x1="198" y1="36" x2="198" y2="42"></line>
    <line x1="442" y1="36" x2="442" y2="42"></line><line x1="472" y1="36" x2="472" y2="42"></line><line x1="502" y1="36" x2="502" y2="42"></line>
    <line x1="532" y1="36" x2="532" y2="42"></line><line x1="562" y1="36" x2="562" y2="42"></line><line x1="592" y1="36" x2="592" y2="42"></line>
  </g>
  <g id="ticksBottom">
    <line x1="48" y1="278" x2="48" y2="284"></line><line x1="78" y1="278" x2="78" y2="284"></line><line x1="108" y1="278" x2="108" y2="284"></line>
    <line x1="138" y1="278" x2="138" y2="284"></line><line x1="168" y1="278" x2="168" y2="284"></line><line x1="198" y1="278" x2="198" y2="284"></line>
    <line x1="442" y1="278" x2="442" y2="284"></line><line x1="472" y1="278" x2="472" y2="284"></line><line x1="502" y1="278" x2="502" y2="284"></line>
    <line x1="532" y1="278" x2="532" y2="284"></line><line x1="562" y1="278" x2="562" y2="284"></line><line x1="592" y1="278" x2="592" y2="284"></line>
  </g>
</g>


<circle cx="40" cy="40" r="11" fill="url(#rivet)" stroke="#1c1b19" stroke-width="1"></circle>
<circle cx="600" cy="40" r="11" fill="url(#rivet)" stroke="#1c1b19" stroke-width="1"></circle>
<circle cx="40" cy="280" r="11" fill="url(#rivet)" stroke="#1c1b19" stroke-width="1"></circle>
<circle cx="600" cy="280" r="11" fill="url(#rivet)" stroke="#1c1b19" stroke-width="1"></circle>
<g stroke="#1c1b19" stroke-width="1.5">
  <line x1="34" y1="34" x2="46" y2="46"></line><line x1="34" y1="46" x2="46" y2="34"></line>
  <line x1="594" y1="34" x2="606" y2="46"></line><line x1="594" y1="46" x2="606" y2="34"></line>
  <line x1="34" y1="274" x2="46" y2="286"></line><line x1="34" y1="286" x2="46" y2="274"></line>
  <line x1="594" y1="274" x2="606" y2="286"></line><line x1="594" y1="286" x2="606" y2="274"></line>
</g>


<text x="320" y="118" text-anchor="middle" font-family="&#39;Roboto Mono&#39;,monospace" font-size="12" letter-spacing="6" fill="#B87333" opacity="0.85">404 · INDUSTRIAL IDENTIFICATION</text>


<text x="245" y="188" text-anchor="middle" font-family="&#39;Space Grotesk&#39;,sans-serif" font-weight="700" font-size="62" letter-spacing="2" fill="url(#steelText)">TRADE</text>
<line x1="452" y1="150" x2="452" y2="196" stroke="#B87333" stroke-width="2" opacity="0.85"></line>
<text x="520" y="188" text-anchor="middle" font-family="&#39;Space Grotesk&#39;,sans-serif" font-weight="700" font-size="48" letter-spacing="2" fill="url(#copperText)">OS</text>

<text x="320" y="220" text-anchor="middle" font-family="&#39;Roboto Mono&#39;,monospace" font-size="11" letter-spacing="4" fill="#948a79">CONSTRUCTION INTELLIGENCE PLATFORM</text>


<text x="48" y="266" font-family="&#39;Roboto Mono&#39;,monospace" font-size="9" letter-spacing="1" fill="#6e6558">MODEL TOS-01 · SER. 404-0001</text>
<text x="592" y="266" text-anchor="end" font-family="&#39;Roboto Mono&#39;,monospace" font-size="9" letter-spacing="1" fill="#6e6558">FABRICATED · TERRE HAUTE, IN</text>
</svg>